<svg width="155" height="156" viewBox="0 0 155 156" fill="none" xmlns="http://www.w3.org/2000/svg">
<path fill-rule="evenodd" clip-rule="evenodd" d="M77.5002 152.36C118.62 152.36 151.954 119.027 151.954 77.9071C151.954 36.7877 118.62 3.4538 77.5002 3.4538C36.3808 3.4538 3.04688 36.7877 3.04688 77.9071C3.04688 119.027 36.3808 152.36 77.5002 152.36Z" stroke="#0062FF" stroke-width="5.95627"/>
<path d="M5.17016 60.1797C3.78256 65.861 3.04688 71.7979 3.04688 77.9066C3.04688 105.87 18.4626 130.232 41.2591 142.96" stroke="#3DD598" stroke-width="5.95627" stroke-linecap="round" stroke-linejoin="round"/>
<path d="M41.3604 143.016C52.0624 148.969 64.3854 152.36 77.5005 152.36V152.36" stroke="#FF974A" stroke-width="5.95627" stroke-linecap="round" stroke-linejoin="round"/>
<path d="M77.5 152.361C118.619 152.361 151.953 119.027 151.953 77.9072C151.953 36.7877 118.619 3.45386 77.5 3.45386" stroke="#FFC542" stroke-width="5.95627" stroke-linecap="round" stroke-linejoin="round"/>
<path d="M38.441 59.1564V74.3178H35.998L28.8541 63.9906H28.7283V74.3178H25.9817V59.1564H28.4395L35.5761 69.491H35.7093V59.1564H38.441ZM41.3725 74.3178V72.3338L46.6361 67.1739C47.1395 66.6655 47.559 66.214 47.8946 65.8191C48.2302 65.4243 48.4819 65.0418 48.6497 64.6717C48.8175 64.3015 48.9014 63.9067 48.9014 63.4872C48.9014 63.0084 48.7928 62.5988 48.5757 62.2583C48.3585 61.9128 48.0599 61.6463 47.6799 61.4587C47.2999 61.2712 46.868 61.1774 46.3844 61.1774C45.8859 61.1774 45.4491 61.2811 45.074 61.4884C44.6989 61.6907 44.4078 61.9794 44.2005 62.3545C43.9981 62.7296 43.897 63.1762 43.897 63.6945H41.2837C41.2837 62.7321 41.5033 61.8955 41.9426 61.1848C42.3818 60.4741 42.9864 59.9239 43.7563 59.534C44.5311 59.1441 45.4195 58.9491 46.4214 58.9491C47.4381 58.9491 48.3314 59.1391 49.1013 59.5192C49.8712 59.8992 50.4684 60.4199 50.8928 61.0812C51.3222 61.7425 51.5369 62.4976 51.5369 63.3465C51.5369 63.9141 51.4283 64.4718 51.2111 65.0196C50.994 65.5674 50.6115 66.1745 50.0637 66.8407C49.5208 67.507 48.7583 68.314 47.7761 69.2615L45.1629 71.9192V72.0229H51.7664V74.3178H41.3725ZM54.4073 74.3178V72.3338L59.6708 67.1739C60.1742 66.6655 60.5937 66.214 60.9293 65.8191C61.265 65.4243 61.5167 65.0418 61.6845 64.6717C61.8523 64.3015 61.9362 63.9067 61.9362 63.4872C61.9362 63.0084 61.8276 62.5988 61.6104 62.2583C61.3933 61.9128 61.0947 61.6463 60.7147 61.4587C60.3346 61.2712 59.9028 61.1774 59.4191 61.1774C58.9207 61.1774 58.4839 61.2811 58.1088 61.4884C57.7337 61.6907 57.4425 61.9794 57.2352 62.3545C57.0329 62.7296 56.9317 63.1762 56.9317 63.6945H54.3184C54.3184 62.7321 54.5381 61.8955 54.9773 61.1848C55.4166 60.4741 56.0211 59.9239 56.7911 59.534C57.5659 59.1441 58.4543 58.9491 59.4561 58.9491C60.4728 58.9491 61.3661 59.1391 62.136 59.5192C62.906 59.8992 63.5031 60.4199 63.9276 61.0812C64.357 61.7425 64.5716 62.4976 64.5716 63.3465C64.5716 63.9141 64.4631 64.4718 64.2459 65.0196C64.0288 65.5674 63.6463 66.1745 63.0984 66.8407C62.5555 67.507 61.793 68.314 60.8109 69.2615L58.1976 71.9192V72.0229H64.8011V74.3178H54.4073ZM69.1225 74.4807C68.6734 74.4807 68.2885 74.3227 67.9677 74.0069C67.6469 73.691 67.4889 73.3061 67.4939 72.852C67.4889 72.4078 67.6469 72.0278 67.9677 71.7119C68.2885 71.3961 68.6734 71.2381 69.1225 71.2381C69.5568 71.2381 69.9344 71.3961 70.2552 71.7119C70.5809 72.0278 70.7463 72.4078 70.7512 72.852C70.7463 73.1531 70.6673 73.427 70.5143 73.6737C70.3662 73.9205 70.1688 74.1179 69.9221 74.266C69.6802 74.4091 69.4137 74.4807 69.1225 74.4807ZM78.3947 74.5251C77.2941 74.5251 76.3169 74.34 75.4631 73.9699C74.6142 73.5997 73.9479 73.0938 73.4643 72.4522C72.9856 71.8057 72.7487 71.0728 72.7536 70.2535C72.7487 69.6169 72.8868 69.032 73.1682 68.499C73.4495 67.966 73.8295 67.5218 74.3082 67.1665C74.7919 66.8062 75.3298 66.5767 75.9221 66.478V66.3744C75.1423 66.2016 74.5106 65.8043 74.0269 65.1825C73.5482 64.5557 73.3113 63.8327 73.3162 63.0134C73.3113 62.2336 73.5284 61.5377 73.9677 60.9257C74.4069 60.3137 75.009 59.8325 75.774 59.4821C76.539 59.1268 77.4126 58.9491 78.3947 58.9491C79.367 58.9491 80.2331 59.1268 80.9932 59.4821C81.7581 59.8325 82.3603 60.3137 82.7995 60.9257C83.2437 61.5377 83.4658 62.2336 83.4658 63.0134C83.4658 63.8327 83.2215 64.5557 82.7329 65.1825C82.2492 65.8043 81.6249 66.2016 80.8599 66.3744V66.478C81.4522 66.5767 81.9852 66.8062 82.459 67.1665C82.9377 67.5218 83.3177 67.966 83.599 68.499C83.8853 69.032 84.0284 69.6169 84.0284 70.2535C84.0284 71.0728 83.7866 71.8057 83.3029 72.4522C82.8192 73.0938 82.153 73.5997 81.3041 73.9699C80.4601 74.34 79.4904 74.5251 78.3947 74.5251ZM78.3947 72.4078C78.9623 72.4078 79.4558 72.3116 79.8753 72.1191C80.2948 71.9217 80.6205 71.6453 80.8525 71.29C81.0845 70.9346 81.2029 70.525 81.2079 70.0611C81.2029 69.5774 81.0771 69.1505 80.8303 68.7803C80.5885 68.4053 80.2553 68.1116 79.8309 67.8994C79.4114 67.6872 78.9327 67.5811 78.3947 67.5811C77.8518 67.5811 77.3681 67.6872 76.9437 67.8994C76.5193 68.1116 76.1837 68.4053 75.9369 68.7803C75.6951 69.1505 75.5766 69.5774 75.5815 70.0611C75.5766 70.525 75.6901 70.9346 75.9221 71.29C76.1541 71.6404 76.4798 71.9143 76.8993 72.1117C77.3237 72.3091 77.8222 72.4078 78.3947 72.4078ZM78.3947 65.5008C78.8586 65.5008 79.2683 65.407 79.6236 65.2195C79.9839 65.0319 80.2677 64.7704 80.475 64.4348C80.6822 64.0992 80.7883 63.7117 80.7933 63.2725C80.7883 62.8382 80.6847 62.4582 80.4824 62.1324C80.28 61.8018 79.9987 61.5476 79.6384 61.3699C79.2781 61.1873 78.8636 61.096 78.3947 61.096C77.916 61.096 77.494 61.1873 77.1288 61.3699C76.7685 61.5476 76.4872 61.8018 76.2848 62.1324C76.0874 62.4582 75.9912 62.8382 75.9961 63.2725C75.9912 63.7117 76.0899 64.0992 76.2922 64.4348C76.4995 64.7654 76.7833 65.027 77.1436 65.2195C77.5088 65.407 77.9258 65.5008 78.3947 65.5008ZM87.1042 74.3178L93.5523 61.555V61.4513H86.0678V59.1564H96.395V61.5032L89.9544 74.3178H87.1042ZM104.15 74.6065C102.931 74.6065 101.884 74.2981 101.011 73.6811C100.142 73.0593 99.4733 72.1635 99.0045 70.9938C98.5406 69.8192 98.3086 68.4053 98.3086 66.7519C98.3135 65.0986 98.548 63.692 99.0119 62.5322C99.4808 61.3674 100.149 60.4791 101.018 59.8671C101.892 59.2551 102.935 58.9491 104.15 58.9491C105.364 58.9491 106.408 59.2551 107.281 59.8671C108.155 60.4791 108.823 61.3674 109.287 62.5322C109.756 63.6969 109.991 65.1035 109.991 66.7519C109.991 68.4102 109.756 69.8266 109.287 71.0013C108.823 72.1709 108.155 73.0642 107.281 73.6811C106.412 74.2981 105.369 74.6065 104.15 74.6065ZM104.15 72.2894C105.097 72.2894 105.845 71.823 106.393 70.8902C106.945 69.9525 107.222 68.5731 107.222 66.7519C107.222 65.5477 107.096 64.5359 106.844 63.7167C106.593 62.8974 106.237 62.2805 105.778 61.8659C105.319 61.4464 104.776 61.2367 104.15 61.2367C103.207 61.2367 102.462 61.7055 101.914 62.6432C101.366 63.576 101.09 64.9456 101.085 66.7519C101.08 67.9611 101.201 68.9778 101.447 69.802C101.699 70.6262 102.055 71.248 102.514 71.6675C102.973 72.0821 103.518 72.2894 104.15 72.2894ZM112.567 74.3178V62.9468H115.128V64.8789H115.261C115.498 64.2275 115.891 63.7191 116.439 63.3539C116.986 62.9838 117.64 62.7987 118.4 62.7987C119.17 62.7987 119.819 62.9862 120.347 63.3613C120.88 63.7315 121.255 64.2373 121.473 64.8789H121.591C121.843 64.2472 122.267 63.7438 122.864 63.3687C123.466 62.9887 124.18 62.7987 125.004 62.7987C126.05 62.7987 126.904 63.1294 127.565 63.7907C128.227 64.452 128.557 65.4169 128.557 66.6853V74.3178H125.87V67.0999C125.87 66.3941 125.682 65.8784 125.307 65.5526C124.932 65.222 124.473 65.0566 123.93 65.0566C123.284 65.0566 122.778 65.259 122.413 65.6637C122.052 66.0634 121.872 66.5841 121.872 67.2257V74.3178H119.244V66.9888C119.244 66.4015 119.067 65.9326 118.711 65.5822C118.361 65.2318 117.902 65.0566 117.334 65.0566C116.949 65.0566 116.599 65.1553 116.283 65.3527C115.967 65.5452 115.715 65.8191 115.528 66.1745C115.34 66.5249 115.247 66.9345 115.247 67.4034V74.3178H112.567Z" fill="#171725"/>
<path d="M27.4897 91.5203V90.706H33.1753V91.5203H30.7915V98.2867H29.8735V91.5203H27.4897ZM36.0333 98.4052C35.52 98.4052 35.0696 98.283 34.6822 98.0387C34.2972 97.7944 33.9962 97.4526 33.779 97.0134C33.5643 96.5741 33.457 96.0609 33.457 95.4736C33.457 94.8813 33.5643 94.3643 33.779 93.9226C33.9962 93.4809 34.2972 93.1379 34.6822 92.8936C35.0696 92.6493 35.52 92.5272 36.0333 92.5272C36.5465 92.5272 36.9956 92.6493 37.3806 92.8936C37.768 93.1379 38.0691 93.4809 38.2838 93.9226C38.5009 94.3643 38.6095 94.8813 38.6095 95.4736C38.6095 96.0609 38.5009 96.5741 38.2838 97.0134C38.0691 97.4526 37.768 97.7944 37.3806 98.0387C36.9956 98.283 36.5465 98.4052 36.0333 98.4052ZM36.0333 97.6204C36.4231 97.6204 36.7439 97.5205 36.9956 97.3206C37.2474 97.1207 37.4337 96.8579 37.5546 96.5322C37.6755 96.2065 37.736 95.8536 37.736 95.4736C37.736 95.0935 37.6755 94.7394 37.5546 94.4112C37.4337 94.083 37.2474 93.8177 36.9956 93.6154C36.7439 93.4131 36.4231 93.3119 36.0333 93.3119C35.6434 93.3119 35.3226 93.4131 35.0709 93.6154C34.8192 93.8177 34.6328 94.083 34.5119 94.4112C34.391 94.7394 34.3306 95.0935 34.3306 95.4736C34.3306 95.8536 34.391 96.2065 34.5119 96.5322C34.6328 96.8579 34.8192 97.1207 35.0709 97.3206C35.3226 97.5205 35.6434 97.6204 36.0333 97.6204ZM42.49 92.6012V93.3415H39.5436V92.6012H42.49ZM40.4024 91.239H41.2759V96.658C41.2759 96.9048 41.3117 97.0899 41.3833 97.2133C41.4573 97.3342 41.5511 97.4156 41.6646 97.4576C41.7806 97.4971 41.9027 97.5168 42.0311 97.5168C42.1273 97.5168 42.2063 97.5119 42.268 97.502C42.3296 97.4897 42.379 97.4798 42.416 97.4724L42.5937 98.2571C42.5345 98.2793 42.4518 98.3015 42.3457 98.3237C42.2396 98.3484 42.1051 98.3607 41.9422 98.3607C41.6955 98.3607 41.4536 98.3077 41.2167 98.2016C40.9823 98.0955 40.7873 97.9338 40.6319 97.7167C40.4789 97.4995 40.4024 97.2256 40.4024 96.8949V91.239ZM45.5516 98.42C45.1913 98.42 44.8644 98.3521 44.5707 98.2164C44.2771 98.0782 44.0439 97.8795 43.8711 97.6204C43.6984 97.3589 43.612 97.043 43.612 96.6729C43.612 96.3471 43.6762 96.0831 43.8045 95.8807C43.9328 95.6759 44.1043 95.5155 44.319 95.3995C44.5337 95.2835 44.7706 95.1972 45.0297 95.1404C45.2913 95.0812 45.5541 95.0343 45.8181 94.9998C46.1636 94.9553 46.4437 94.922 46.6584 94.8998C46.8755 94.8751 47.0335 94.8344 47.1322 94.7777C47.2333 94.7209 47.2839 94.6222 47.2839 94.4816V94.4519C47.2839 94.0867 47.184 93.8029 46.9841 93.6006C46.7867 93.3982 46.4869 93.2971 46.0846 93.2971C45.6676 93.2971 45.3406 93.3884 45.1037 93.571C44.8668 93.7536 44.7003 93.9485 44.604 94.1558L43.7749 93.8597C43.923 93.5142 44.1204 93.2452 44.3671 93.0528C44.6164 92.8578 44.8878 92.7221 45.1815 92.6456C45.4776 92.5666 45.7688 92.5272 46.055 92.5272C46.2376 92.5272 46.4474 92.5494 46.6843 92.5938C46.9237 92.6357 47.1544 92.7233 47.3765 92.8566C47.601 92.9898 47.7873 93.191 47.9354 93.4599C48.0835 93.7289 48.1575 94.0892 48.1575 94.5408V98.2867H47.2839V97.5168H47.2395C47.1803 97.6402 47.0816 97.7722 46.9434 97.9129C46.8052 98.0535 46.6214 98.1732 46.3919 98.2719C46.1624 98.3706 45.8823 98.42 45.5516 98.42ZM45.6849 97.6352C46.0304 97.6352 46.3215 97.5674 46.5584 97.4317C46.7978 97.2959 46.9779 97.1207 47.0989 96.906C47.2222 96.6914 47.2839 96.4656 47.2839 96.2287V95.4291C47.2469 95.4736 47.1655 95.5143 47.0396 95.5513C46.9162 95.5858 46.7731 95.6167 46.6103 95.6438C46.4499 95.6685 46.2932 95.6907 46.1402 95.7105C45.9896 95.7277 45.8675 95.7425 45.7737 95.7549C45.5467 95.7845 45.3345 95.8326 45.1371 95.8992C44.9421 95.9634 44.7842 96.0609 44.6633 96.1917C44.5448 96.32 44.4856 96.4952 44.4856 96.7173C44.4856 97.0208 44.5979 97.2503 44.8224 97.4058C45.0494 97.5587 45.3369 97.6352 45.6849 97.6352ZM50.6999 90.706V98.2867H49.8264V90.706H50.6999ZM59.6446 92.6012C59.6001 92.2261 59.42 91.9349 59.1041 91.7276C58.7883 91.5203 58.4009 91.4167 57.9419 91.4167C57.6063 91.4167 57.3126 91.471 57.0609 91.5796C56.8117 91.6881 56.6167 91.8374 56.4761 92.0275C56.3379 92.2175 56.2688 92.4334 56.2688 92.6752C56.2688 92.8776 56.3169 93.0515 56.4131 93.1971C56.5118 93.3403 56.6377 93.4599 56.7907 93.5562C56.9437 93.6499 57.1041 93.7277 57.2719 93.7894C57.4397 93.8486 57.5939 93.8967 57.7346 93.9337L58.5045 94.141C58.7019 94.1928 58.9215 94.2644 59.1634 94.3557C59.4077 94.447 59.6409 94.5716 59.8629 94.7296C60.0875 94.885 60.2726 95.0849 60.4182 95.3292C60.5638 95.5735 60.6366 95.8733 60.6366 96.2287C60.6366 96.6383 60.5292 97.0085 60.3145 97.3391C60.1023 97.6698 59.7914 97.9326 59.3818 98.1275C58.9746 98.3225 58.4798 98.42 57.8974 98.42C57.3546 98.42 56.8845 98.3324 56.4872 98.1572C56.0923 97.982 55.7814 97.7377 55.5544 97.4243C55.3298 97.1109 55.2027 96.7469 55.1731 96.3323H56.1207C56.1454 96.6186 56.2416 96.8555 56.4094 97.043C56.5797 97.2281 56.7944 97.3663 57.0535 97.4576C57.3151 97.5464 57.5964 97.5908 57.8974 97.5908C58.2479 97.5908 58.5625 97.5341 58.8413 97.4206C59.1202 97.3046 59.341 97.1442 59.5039 96.9394C59.6668 96.7321 59.7482 96.4902 59.7482 96.2139C59.7482 95.9622 59.6779 95.7573 59.5372 95.5994C59.3966 95.4415 59.2115 95.3132 58.982 95.2145C58.7525 95.1157 58.5045 95.0294 58.238 94.9553L57.3052 94.6888C56.713 94.5186 56.2441 94.2755 55.8986 93.9596C55.5532 93.6438 55.3804 93.2304 55.3804 92.7196C55.3804 92.2952 55.4952 91.925 55.7247 91.6092C55.9566 91.2908 56.2675 91.0441 56.6574 90.8689C57.0498 90.6912 57.4878 90.6024 57.9715 90.6024C58.4601 90.6024 58.8944 90.69 59.2744 90.8652C59.6544 91.0379 59.9555 91.2748 60.1776 91.5759C60.4021 91.8769 60.5206 92.2187 60.5329 92.6012H59.6446ZM63.7749 98.42C63.4147 98.42 63.0877 98.3521 62.794 98.2164C62.5004 98.0782 62.2672 97.8795 62.0945 97.6204C61.9217 97.3589 61.8354 97.043 61.8354 96.6729C61.8354 96.3471 61.8995 96.0831 62.0278 95.8807C62.1562 95.6759 62.3277 95.5155 62.5423 95.3995C62.757 95.2835 62.9939 95.1972 63.253 95.1404C63.5146 95.0812 63.7774 95.0343 64.0415 94.9998C64.3869 94.9553 64.667 94.922 64.8817 94.8998C65.0989 94.8751 65.2568 94.8344 65.3555 94.7777C65.4567 94.7209 65.5073 94.6222 65.5073 94.4816V94.4519C65.5073 94.0867 65.4073 93.8029 65.2074 93.6006C65.01 93.3982 64.7102 93.2971 64.308 93.2971C63.8909 93.2971 63.564 93.3884 63.3271 93.571C63.0902 93.7536 62.9236 93.9485 62.8274 94.1558L61.9982 93.8597C62.1463 93.5142 62.3437 93.2452 62.5905 93.0528C62.8397 92.8578 63.1111 92.7221 63.4048 92.6456C63.7009 92.5666 63.9921 92.5272 64.2784 92.5272C64.461 92.5272 64.6707 92.5494 64.9076 92.5938C65.147 92.6357 65.3777 92.7233 65.5998 92.8566C65.8244 92.9898 66.0107 93.191 66.1587 93.4599C66.3068 93.7289 66.3808 94.0892 66.3808 94.5408V98.2867H65.5073V97.5168H65.4628C65.4036 97.6402 65.3049 97.7722 65.1667 97.9129C65.0285 98.0535 64.8447 98.1732 64.6152 98.2719C64.3857 98.3706 64.1056 98.42 63.7749 98.42ZM63.9082 97.6352C64.2537 97.6352 64.5449 97.5674 64.7818 97.4317C65.0211 97.2959 65.2013 97.1207 65.3222 96.906C65.4456 96.6914 65.5073 96.4656 65.5073 96.2287V95.4291C65.4702 95.4736 65.3888 95.5143 65.263 95.5513C65.1396 95.5858 64.9964 95.6167 64.8336 95.6438C64.6732 95.6685 64.5165 95.6907 64.3635 95.7105C64.213 95.7277 64.0908 95.7425 63.997 95.7549C63.77 95.7845 63.5578 95.8326 63.3604 95.8992C63.1654 95.9634 63.0075 96.0609 62.8866 96.1917C62.7681 96.32 62.7089 96.4952 62.7089 96.7173C62.7089 97.0208 62.8212 97.2503 63.0457 97.4058C63.2728 97.5587 63.5603 97.6352 63.9082 97.6352ZM68.9233 90.706V98.2867H68.0497V90.706H68.9233ZM72.9815 98.4052C72.4336 98.4052 71.9611 98.2842 71.5638 98.0424C71.169 97.7981 70.8642 97.4576 70.6495 97.0208C70.4373 96.5815 70.3312 96.0707 70.3312 95.4884C70.3312 94.906 70.4373 94.3927 70.6495 93.9485C70.8642 93.5019 71.1628 93.1539 71.5453 92.9047C71.9302 92.653 72.3794 92.5272 72.8926 92.5272C73.1887 92.5272 73.4812 92.5765 73.7699 92.6752C74.0586 92.7739 74.3214 92.9343 74.5583 93.1564C74.7952 93.376 74.984 93.6672 75.1246 94.03C75.2653 94.3927 75.3356 94.8394 75.3356 95.3699V95.7401H70.953V94.985H74.4473C74.4473 94.6642 74.3831 94.3779 74.2548 94.1262C74.1289 93.8745 73.9488 93.6759 73.7144 93.5303C73.4824 93.3847 73.2085 93.3119 72.8926 93.3119C72.5447 93.3119 72.2436 93.3982 71.9895 93.571C71.7378 93.7413 71.544 93.9633 71.4083 94.2373C71.2726 94.5112 71.2047 94.8048 71.2047 95.1182V95.6216C71.2047 96.051 71.2788 96.415 71.4268 96.7136C71.5774 97.0097 71.7859 97.2355 72.0524 97.3909C72.3189 97.5439 72.6286 97.6204 72.9815 97.6204C73.211 97.6204 73.4182 97.5884 73.6033 97.5242C73.7909 97.4576 73.9525 97.3589 74.0882 97.2281C74.2239 97.0948 74.3288 96.9295 74.4028 96.7321L75.2468 96.969C75.158 97.2552 75.0087 97.5069 74.7989 97.7241C74.5892 97.9388 74.33 98.1066 74.0216 98.2275C73.7131 98.3459 73.3664 98.4052 72.9815 98.4052ZM80.7662 93.8745L79.9815 94.0966C79.9321 93.9658 79.8593 93.8387 79.7631 93.7153C79.6693 93.5895 79.541 93.4858 79.3781 93.4044C79.2152 93.323 79.0067 93.2823 78.7525 93.2823C78.4046 93.2823 78.1147 93.3625 77.8827 93.5229C77.6532 93.6808 77.5385 93.8819 77.5385 94.1262C77.5385 94.3434 77.6174 94.5149 77.7753 94.6407C77.9333 94.7666 78.18 94.8714 78.5157 94.9553L79.3596 95.1626C79.8679 95.286 80.2467 95.4748 80.496 95.729C80.7452 95.9807 80.8698 96.3052 80.8698 96.7025C80.8698 97.0282 80.776 97.3194 80.5885 97.576C80.4034 97.8327 80.1443 98.035 79.8112 98.1831C79.478 98.3311 79.0906 98.4052 78.6489 98.4052C78.069 98.4052 77.589 98.2793 77.209 98.0276C76.829 97.7759 76.5884 97.4082 76.4872 96.9246L77.3164 96.7173C77.3953 97.0233 77.5446 97.2528 77.7642 97.4058C77.9863 97.5587 78.2763 97.6352 78.6341 97.6352C79.0413 97.6352 79.3645 97.5489 79.6039 97.3761C79.8457 97.2009 79.9666 96.9912 79.9666 96.7469C79.9666 96.5495 79.8975 96.3841 79.7594 96.2509C79.6212 96.1152 79.4089 96.014 79.1227 95.9474L78.1751 95.7253C77.6544 95.6019 77.2719 95.4106 77.0276 95.1515C76.7858 94.89 76.6649 94.563 76.6649 94.1706C76.6649 93.8498 76.755 93.566 76.9351 93.3193C77.1177 93.0725 77.3657 92.8788 77.6791 92.7381C77.995 92.5975 78.3528 92.5272 78.7525 92.5272C79.3152 92.5272 79.7569 92.6505 80.0777 92.8973C80.401 93.1441 80.6304 93.4698 80.7662 93.8745ZM85.3837 98.2867V90.706H87.9452C88.5374 90.706 89.0236 90.8072 89.4036 91.0095C89.7836 91.2094 90.0649 91.4846 90.2475 91.835C90.4301 92.1854 90.5214 92.5839 90.5214 93.0306C90.5214 93.4772 90.4301 93.8733 90.2475 94.2187C90.0649 94.5642 89.7848 94.8357 89.4073 95.0331C89.0297 95.228 88.5473 95.3255 87.96 95.3255H85.8871V94.4964H87.9304C88.3351 94.4964 88.6608 94.4371 88.9076 94.3187C89.1568 94.2002 89.3369 94.0324 89.448 93.8153C89.5615 93.5957 89.6183 93.3341 89.6183 93.0306C89.6183 92.727 89.5615 92.4618 89.448 92.2347C89.3345 92.0077 89.1531 91.8325 88.9039 91.7091C88.6546 91.5833 88.3252 91.5203 87.9156 91.5203H86.3017V98.2867H85.3837ZM88.952 94.8813L90.8176 98.2867H89.7515L87.9156 94.8813H88.952ZM94.3298 98.4052C93.782 98.4052 93.3094 98.2842 92.9121 98.0424C92.5173 97.7981 92.2125 97.4576 91.9978 97.0208C91.7856 96.5815 91.6795 96.0707 91.6795 95.4884C91.6795 94.906 91.7856 94.3927 91.9978 93.9485C92.2125 93.5019 92.5111 93.1539 92.8936 92.9047C93.2786 92.653 93.7277 92.5272 94.241 92.5272C94.5371 92.5272 94.8295 92.5765 95.1182 92.6752C95.4069 92.7739 95.6697 92.9343 95.9066 93.1564C96.1435 93.376 96.3323 93.6672 96.473 94.03C96.6136 94.3927 96.684 94.8394 96.684 95.3699V95.7401H92.3014V94.985H95.7956C95.7956 94.6642 95.7314 94.3779 95.6031 94.1262C95.4773 93.8745 95.2971 93.6759 95.0627 93.5303C94.8307 93.3847 94.5568 93.3119 94.241 93.3119C93.893 93.3119 93.592 93.3982 93.3378 93.571C93.0861 93.7413 92.8924 93.9633 92.7567 94.2373C92.6209 94.5112 92.5531 94.8048 92.5531 95.1182V95.6216C92.5531 96.051 92.6271 96.415 92.7752 96.7136C92.9257 97.0097 93.1342 97.2355 93.4007 97.3909C93.6672 97.5439 93.9769 97.6204 94.3298 97.6204C94.5593 97.6204 94.7666 97.5884 94.9516 97.5242C95.1392 97.4576 95.3008 97.3589 95.4365 97.2281C95.5723 97.0948 95.6771 96.9295 95.7512 96.7321L96.5951 96.969C96.5063 97.2552 96.357 97.5069 96.1472 97.7241C95.9375 97.9388 95.6784 98.1066 95.3699 98.2275C95.0615 98.3459 94.7148 98.4052 94.3298 98.4052ZM102.563 92.6012L100.461 98.2867H99.5725L97.47 92.6012H98.4176L99.9871 97.1318H100.046L101.616 92.6012H102.563ZM105.971 98.4052C105.423 98.4052 104.951 98.2842 104.553 98.0424C104.158 97.7981 103.854 97.4576 103.639 97.0208C103.427 96.5815 103.321 96.0707 103.321 95.4884C103.321 94.906 103.427 94.3927 103.639 93.9485C103.854 93.5019 104.152 93.1539 104.535 92.9047C104.92 92.653 105.369 92.5272 105.882 92.5272C106.178 92.5272 106.471 92.5765 106.759 92.6752C107.048 92.7739 107.311 92.9343 107.548 93.1564C107.785 93.376 107.973 93.6672 108.114 94.03C108.255 94.3927 108.325 94.8394 108.325 95.3699V95.7401H103.943V94.985H107.437C107.437 94.6642 107.373 94.3779 107.244 94.1262C107.118 93.8745 106.938 93.6759 106.704 93.5303C106.472 93.3847 106.198 93.3119 105.882 93.3119C105.534 93.3119 105.233 93.3982 104.979 93.571C104.727 93.7413 104.534 93.9633 104.398 94.2373C104.262 94.5112 104.194 94.8048 104.194 95.1182V95.6216C104.194 96.051 104.268 96.415 104.416 96.7136C104.567 97.0097 104.775 97.2355 105.042 97.3909C105.308 97.5439 105.618 97.6204 105.971 97.6204C106.2 97.6204 106.408 97.5884 106.593 97.5242C106.78 97.4576 106.942 97.3589 107.078 97.2281C107.213 97.0948 107.318 96.9295 107.392 96.7321L108.236 96.969C108.147 97.2552 107.998 97.5069 107.788 97.7241C107.579 97.9388 107.32 98.1066 107.011 98.2275C106.703 98.3459 106.356 98.4052 105.971 98.4052ZM110.602 94.8665V98.2867H109.728V92.6012H110.572V93.4895H110.646C110.78 93.2008 110.982 92.9689 111.253 92.7937C111.525 92.616 111.875 92.5272 112.305 92.5272C112.69 92.5272 113.026 92.6061 113.315 92.7641C113.604 92.9195 113.828 93.1564 113.989 93.4747C114.149 93.7906 114.229 94.1904 114.229 94.674V98.2867H113.356V94.7333C113.356 94.2866 113.24 93.9387 113.008 93.6894C112.776 93.4377 112.458 93.3119 112.053 93.3119C111.774 93.3119 111.525 93.3723 111.305 93.4933C111.088 93.6142 110.917 93.7906 110.791 94.0226C110.665 94.2545 110.602 94.5358 110.602 94.8665ZM119.483 95.9622V92.6012H120.357V98.2867H119.483V97.3243H119.424C119.291 97.613 119.084 97.8586 118.802 98.0609C118.521 98.2608 118.166 98.3607 117.736 98.3607C117.381 98.3607 117.065 98.283 116.789 98.1275C116.512 97.9696 116.295 97.7327 116.137 97.4169C115.979 97.0985 115.9 96.6975 115.9 96.2139V92.6012H116.774V96.1546C116.774 96.5692 116.89 96.8999 117.122 97.1466C117.356 97.3934 117.655 97.5168 118.017 97.5168C118.235 97.5168 118.455 97.4613 118.68 97.3502C118.907 97.2392 119.097 97.0689 119.25 96.8394C119.406 96.6099 119.483 96.3175 119.483 95.9622ZM124.415 98.4052C123.867 98.4052 123.395 98.2842 122.997 98.0424C122.603 97.7981 122.298 97.4576 122.083 97.0208C121.871 96.5815 121.765 96.0707 121.765 95.4884C121.765 94.906 121.871 94.3927 122.083 93.9485C122.298 93.5019 122.596 93.1539 122.979 92.9047C123.364 92.653 123.813 92.5272 124.326 92.5272C124.622 92.5272 124.915 92.5765 125.203 92.6752C125.492 92.7739 125.755 92.9343 125.992 93.1564C126.229 93.376 126.418 93.6672 126.558 94.03C126.699 94.3927 126.769 94.8394 126.769 95.3699V95.7401H122.387V94.985H125.881C125.881 94.6642 125.817 94.3779 125.688 94.1262C125.563 93.8745 125.382 93.6759 125.148 93.5303C124.916 93.3847 124.642 93.3119 124.326 93.3119C123.978 93.3119 123.677 93.3982 123.423 93.571C123.171 93.7413 122.978 93.9633 122.842 94.2373C122.706 94.5112 122.638 94.8048 122.638 95.1182V95.6216C122.638 96.051 122.712 96.415 122.86 96.7136C123.011 97.0097 123.219 97.2355 123.486 97.3909C123.752 97.5439 124.062 97.6204 124.415 97.6204C124.645 97.6204 124.852 97.5884 125.037 97.5242C125.224 97.4576 125.386 97.3589 125.522 97.2281C125.658 97.0948 125.762 96.9295 125.836 96.7321L126.68 96.969C126.592 97.2552 126.442 97.5069 126.232 97.7241C126.023 97.9388 125.764 98.1066 125.455 98.2275C125.147 98.3459 124.8 98.4052 124.415 98.4052Z" fill="#696974"/>
</svg>
