<svg width="64" height="64" viewBox="0 0 64 64" fill="none" xmlns="http://www.w3.org/2000/svg">
<path fill-rule="evenodd" clip-rule="evenodd" d="M34.6826 56.6667C34.6826 58.1395 33.4884 59.3334 32.0159 59.3334C30.5431 59.3334 29.3492 58.1395 29.3492 56.6667V44.6667H27.7644C27.2962 44.667 26.721 44.6675 26.2505 44.6086L26.2416 44.6075C25.9044 44.5654 24.3683 44.3739 23.6366 42.8656C22.9034 41.3539 23.7086 40.0203 23.8827 39.7318L23.8893 39.7211C24.1351 39.3131 24.4929 38.8574 24.7871 38.4824L24.8504 38.4019C25.6361 37.3995 26.6547 36.1083 27.6692 35.0656C28.1754 34.5454 28.7548 34.0088 29.3706 33.5851C29.9178 33.2086 30.8516 32.6667 32.0002 32.6667C33.1487 32.6667 34.0826 33.2086 34.6298 33.5851C35.2455 34.0088 35.825 34.5454 36.3311 35.0656C37.3458 36.1083 38.3642 37.3995 39.15 38.4019L39.2132 38.4824C39.5074 38.8574 39.8652 39.3128 40.1111 39.7211L40.1175 39.7318C40.2916 40.0203 41.097 41.3542 40.3636 42.8656C39.6322 44.3739 38.0959 44.5654 37.7588 44.6075L37.7498 44.6086C37.2794 44.6675 36.7042 44.667 36.2359 44.6667H34.6826V56.6667Z" fill="#00AB6B"/>
<path d="M3.3335 33.3334C3.3335 26.2887 8.08299 20.3552 14.5555 18.5579C15.0781 18.4127 15.3395 18.3402 15.4901 18.1859C15.6407 18.0316 15.7066 17.7703 15.8383 17.2476C17.6607 10.0174 24.2047 4.66669 32.0002 4.66669C40.5732 4.66669 47.6343 11.1395 48.5634 19.4647C48.6362 20.1189 48.6727 20.4462 48.8394 20.6354C49.006 20.8247 49.3306 20.9035 49.9796 21.061C56.1127 22.5491 60.6668 28.076 60.6668 34.6667C60.6668 42.3987 54.3988 48.6667 46.6668 48.6667H43.7351C42.5122 48.6667 41.9004 48.6667 41.8204 48.5651C41.7812 48.5155 41.7711 48.4904 41.7647 48.4275C41.7514 48.299 42.2719 47.7928 43.3135 46.7806C45.9538 44.2144 46.0135 39.9936 43.4474 37.3534C41.718 35.1952 40.0842 32.9126 37.9679 31.1102C36.2898 29.6808 34.2471 28.6667 32.0002 28.6667C29.7532 28.6667 27.7106 29.6808 26.0324 31.1102C23.9161 32.9126 22.2822 35.1952 20.553 37.3534C17.9867 39.9936 18.0467 44.2144 20.6869 46.7806C21.7283 47.7928 22.2491 48.299 22.2357 48.4275C22.2291 48.4904 22.219 48.5155 22.1799 48.5651C22.0998 48.6667 21.4882 48.6667 20.2653 48.6667H18.6668C10.1985 48.6667 3.3335 41.8016 3.3335 33.3334Z" fill="#00AB6B"/>
</svg>
