<svg width="20" height="20" viewBox="0 0 20 20" fill="none" xmlns="http://www.w3.org/2000/svg">
<path d="M5.23888 8.7916C7.15414 8.7916 8.70676 7.23898 8.70676 5.32372C8.70676 3.40846 7.15414 1.85583 5.23888 1.85583C3.32362 1.85583 1.771 3.40846 1.771 5.32372C1.771 7.23898 3.32362 8.7916 5.23888 8.7916Z" stroke="white" stroke-width="1.22396"/>
<path d="M14.8266 7.85915V8.79169M14.8266 7.85915C14.0007 7.85915 13.2731 7.44703 12.8462 6.82126M14.8266 7.85915C15.6525 7.85915 16.3801 7.44703 16.807 6.82126M12.8462 6.82126L11.971 7.39288M12.8462 6.82126C12.5939 6.45115 12.4467 6.00632 12.4467 5.5278C12.4467 5.04935 12.5938 4.60456 12.8462 4.23449M16.807 6.82126L17.6822 7.39288M16.807 6.82126C17.0594 6.45115 17.2066 6.00632 17.2066 5.5278C17.2066 5.04935 17.0594 4.60456 16.8071 4.23449M14.8266 3.19646C15.6526 3.19646 16.3803 3.60864 16.8071 4.23449M14.8266 3.19646C14.0006 3.19646 13.2729 3.60864 12.8462 4.23449M14.8266 3.19646V2.26392M16.8071 4.23449L17.6825 3.66273M12.8462 4.23449L11.9707 3.66273" stroke="white" stroke-width="1.22396" stroke-linecap="round"/>
<path d="M14.6222 18.1753C16.5374 18.1753 18.0901 16.6227 18.0901 14.7074C18.0901 12.7922 16.5374 11.2396 14.6222 11.2396C12.7069 11.2396 11.1543 12.7922 11.1543 14.7074C11.1543 16.6227 12.7069 18.1753 14.6222 18.1753Z" stroke="white" stroke-width="1.22396"/>
<path d="M5.23888 18.1753C7.15414 18.1753 8.70676 16.6227 8.70676 14.7074C8.70676 12.7922 7.15414 11.2396 5.23888 11.2396C3.32362 11.2396 1.771 12.7922 1.771 14.7074C1.771 16.6227 3.32362 18.1753 5.23888 18.1753Z" stroke="white" stroke-width="1.22396"/>
</svg>
