<svg width="20" height="20" viewBox="0 0 20 20" fill="none" xmlns="http://www.w3.org/2000/svg">
<path d="M6.25879 8.5307V9.98779M6.25879 8.5307C5.31489 8.5307 4.48328 8.06705 3.99554 7.36306M6.25879 8.5307C7.20269 8.5307 8.0343 8.06705 8.52205 7.36306M3.99554 7.36306L2.58691 8.35584M3.99554 7.36306C3.70707 6.94669 3.53888 6.44625 3.53888 5.90793C3.53888 5.36967 3.70703 4.86928 3.99544 4.45295M8.52205 7.36306L9.93066 8.35584M8.52205 7.36306C8.8105 6.94669 8.97867 6.44625 8.97867 5.90793C8.97867 5.36967 8.81058 4.86928 8.52213 4.45295M3.99544 4.45295C4.48316 3.74886 5.31482 3.28515 6.25879 3.28515M3.99544 4.45295L2.58691 3.46001M8.52213 4.45295C8.03442 3.74886 7.20276 3.28515 6.25879 3.28515M8.52213 4.45295L9.93066 3.46001M6.25879 3.28515V1.82806" stroke="white" stroke-width="1.22396"/>
<path d="M11.5626 1.82806H17.2662C17.2707 1.82806 17.2744 1.83172 17.2744 1.83622V12.4357L11.5626 18.1475H3.41099C3.40649 18.1475 3.40283 18.1438 3.40283 18.1393V11.608M16.9094 12.4357H11.5626V17.7075" stroke="white" stroke-width="1.22396"/>
</svg>
