<svg width="64" height="64" viewBox="0 0 64 64" fill="none" xmlns="http://www.w3.org/2000/svg">
<path d="M26.108 43.1276L26.104 43.1156L25.344 42.8676C21.7294 41.59 18.5582 39.3004 16.208 36.2716C14.3075 33.8243 13.0017 30.9689 12.3935 27.9306C11.7852 24.8924 11.8913 21.7544 12.7032 18.7641C13.5151 15.7738 15.0107 13.0131 17.072 10.6997C19.1334 8.38625 21.704 6.58341 24.5812 5.43337C27.4584 4.28332 30.5635 3.81752 33.6515 4.07271C36.7395 4.3279 39.726 5.29709 42.3754 6.90385C45.0248 8.5106 47.2646 10.711 48.9182 13.3314C50.5718 15.9518 51.594 18.9206 51.904 22.0036C52.012 23.1036 51.104 23.9996 50 23.9996C48.896 23.9996 48.012 23.0996 47.88 22.0036C47.523 19.1749 46.4166 16.493 44.6754 14.2354C42.9342 11.9777 40.6213 10.2264 37.9761 9.16253C35.3309 8.09868 32.4495 7.76098 29.63 8.18436C26.8105 8.60774 24.1553 9.77683 21.9392 11.5707C19.7231 13.3645 18.0266 15.7179 17.0253 18.3874C16.0239 21.0568 15.754 23.9454 16.2435 26.7542C16.7331 29.563 17.9642 32.1899 19.8097 34.3632C21.6551 36.5365 24.0477 38.1772 26.74 39.1156C27.4191 37.877 28.5134 36.9177 29.8303 36.4066C31.1472 35.8955 32.6022 35.8655 33.939 36.3217C35.2759 36.7779 36.4089 37.6912 37.1386 38.9007C37.8683 40.1102 38.1478 41.5384 37.928 42.9338C37.7082 44.3291 37.0032 45.6022 35.937 46.5288C34.8708 47.4554 33.5119 47.9762 32.0995 47.9993C30.6871 48.0225 29.3118 47.5466 28.2158 46.6554C27.1199 45.7643 26.3734 44.515 26.108 43.1276ZM22.936 46.2276C19.0184 44.6282 15.5934 42.0214 13.008 38.6716C12.3509 39.6571 12.0001 40.8151 12 41.9996V43.9996C12 51.8836 19.44 59.9996 32 59.9996C44.56 59.9996 52 51.8836 52 43.9996V41.9996C52 40.4083 51.3679 38.8822 50.2426 37.7569C49.1174 36.6317 47.5913 35.9996 46 35.9996H40C40.839 37.12 41.4334 38.4041 41.7447 39.7688C42.0561 41.1334 42.0775 42.5482 41.8076 43.9217C41.5377 45.2951 40.9824 46.5966 40.1778 47.742C39.3731 48.8873 38.337 49.8509 37.1364 50.5705C35.9358 51.2902 34.5976 51.7497 33.2082 51.9195C31.8188 52.0893 30.4092 51.9654 29.0707 51.5561C27.7322 51.1467 26.4945 50.4609 25.4377 49.543C24.381 48.6251 23.5287 47.4956 22.936 46.2276ZM44 23.9996C44 20.3436 42.364 17.0676 39.784 14.8676C38.5243 13.8006 37.058 13.005 35.4768 12.5305C33.8956 12.056 32.2335 11.9129 30.5944 12.1102C28.9554 12.3074 27.3747 12.8407 25.9511 13.6767C24.5276 14.5127 23.2919 15.6334 22.3213 16.9688C21.3506 18.3042 20.666 19.8255 20.3101 21.4375C19.9542 23.0496 19.9348 24.7177 20.2531 26.3376C20.5713 27.9575 21.2204 29.4943 22.1597 30.8519C23.099 32.2095 24.3083 33.3587 25.712 34.2276C27.4907 32.7856 29.7103 31.9977 32 31.9956C34.2887 31.9955 36.5083 32.7805 38.288 34.2196C40.0336 33.1456 41.4751 31.6425 42.475 29.8535C43.4749 28.0644 43.9999 26.0491 44 23.9996Z" fill="#00AB6B"/>
</svg>
