<svg width="37" height="37" viewBox="0 0 37 37" fill="none" xmlns="http://www.w3.org/2000/svg">
<rect x="0.555664" y="0.383667" width="35.9028" height="35.9028" rx="17.9514" fill="#FBF6EB"/>
<path d="M21.7948 15.6919C23.4372 17.2815 24.5453 19.4106 24.9216 21.6639C25.1143 22.8174 24.6691 23.8296 23.904 24.5365C23.1465 25.2364 22.0726 25.6449 20.9525 25.6449H16.0608C14.9408 25.6449 13.8668 25.2364 13.1094 24.5365C12.3442 23.8296 11.899 22.8174 12.0917 21.6639C12.5473 18.9355 13.9645 16.9054 15.2008 15.709C15.2636 15.6482 15.3265 15.5885 15.3974 15.5368C15.5504 15.4251 15.824 15.3144 16.0116 15.2882C16.105 15.2752 16.1722 15.2752 16.3065 15.2752H20.7068C20.8411 15.2752 20.9083 15.2752 21.0017 15.2882C21.1894 15.3144 21.4629 15.4251 21.6159 15.5368C21.6921 15.5924 21.7263 15.6256 21.7948 15.6919Z" fill="#FFA800"/>
<path d="M17.5827 11.4717C17.7501 11.3037 18.0663 11.0253 18.5065 11.0253C18.9466 11.0253 19.2628 11.3037 19.4302 11.4717C19.6332 11.6754 19.795 11.9798 20.0525 12.1161C20.2655 12.2287 20.5402 12.1193 20.7528 12.064C20.9553 12.0112 21.2641 11.9314 21.5913 11.9749C21.7335 11.9938 21.9201 12.0391 22.0646 12.1678C22.2358 12.3202 22.2634 12.5098 22.2384 12.6532C22.2079 12.8275 22.0999 12.9706 21.9939 13.1068L21.3871 13.888C21.2307 14.0899 21.076 14.2973 20.8682 14.4499C20.7142 14.563 20.5194 14.5952 20.3285 14.5952H16.6845C16.4935 14.5952 16.2987 14.563 16.1448 14.4499C15.937 14.2973 15.7822 14.0899 15.6258 13.888L15.0191 13.1068C14.913 12.9706 14.805 12.8275 14.7746 12.6532C14.7495 12.5098 14.7772 12.3202 14.9484 12.1678C15.0929 12.0391 15.2795 11.9938 15.4216 11.9749C15.7488 11.9314 16.0576 12.0112 16.2602 12.064C16.4728 12.1193 16.7474 12.2287 16.9604 12.1161C17.218 11.9798 17.3797 11.6754 17.5827 11.4717Z" fill="#FFA800"/>
</svg>
