<svg width="35" height="35" viewBox="0 0 35 35" fill="none" xmlns="http://www.w3.org/2000/svg">
<rect x="0.460205" y="0.62085" width="34" height="34" rx="17" fill="#104932"/>
<path d="M12.3596 16.4858V19.3198C12.3596 20.9229 12.3596 21.7245 12.8576 22.2225C13.3556 22.7206 14.1571 22.7206 15.7602 22.7206H17.7438M22.5613 16.4858V17.3361" stroke="#00AB6B" stroke-width="0.85014" stroke-linecap="round"/>
<path d="M22.561 16.4855V17.9024" stroke="#00AB6B" stroke-width="0.85014" stroke-linecap="round"/>
<path d="M19.1604 21.3036H23.1277M21.1441 23.2874V19.3198" stroke="#99FFD9" stroke-width="0.85014" stroke-linecap="round"/>
<path d="M14.6267 20.4535H16.8937" stroke="#00AB6B" stroke-width="0.85014" stroke-linecap="round"/>
<path d="M16.3856 15.3087C16.2258 15.886 15.6446 16.8817 14.5402 17.026C13.5652 17.1534 12.8256 16.7277 12.6367 16.5498C12.4284 16.4055 11.9538 15.9437 11.8375 15.6551C11.7213 15.3665 11.8569 14.7411 11.9538 14.4862L12.341 13.3649C12.4356 13.0832 12.6569 12.4171 12.8837 12.1918C13.1106 11.9664 13.57 11.9566 13.759 11.9566H17.7295C18.7515 11.9711 20.9861 11.9475 21.4278 11.9566C21.8696 11.9657 22.135 12.3361 22.2125 12.4948C22.8716 14.0913 23.1279 15.0057 23.1279 15.3953C23.0419 15.811 22.6859 16.5947 21.4278 16.9394C20.1203 17.2976 19.379 16.6009 19.1465 16.3333M15.848 16.3333C16.0321 16.5594 16.6094 17.0144 17.4464 17.026C18.2834 17.0375 19.0061 16.4536 19.2627 16.1601C19.3354 16.0736 19.4923 15.8167 19.6551 15.3087" stroke="#00AB6B" stroke-width="0.85014" stroke-linecap="round" stroke-linejoin="round"/>
</svg>
