<svg width="37" height="37" viewBox="0 0 37 37" fill="none" xmlns="http://www.w3.org/2000/svg">
<rect x="0.13916" y="0.383667" width="35.9028" height="35.9028" rx="17.9514" fill="#E0FCF0"/>
<path d="M12.8901 25.0526C12.8279 24.9826 12.5411 24.6429 12.459 24.4548C12.6176 24.1934 12.8279 23.9269 12.8901 23.857C13.014 23.7175 13.1967 23.5352 13.4393 23.3532C13.9263 22.9879 14.664 22.6188 15.6424 22.6188C16.6209 22.6188 17.3585 22.9879 17.8456 23.3532C18.0881 23.5352 18.2708 23.7175 18.3947 23.857C18.4569 23.9269 18.7087 24.2476 18.8259 24.4548C18.7565 24.5982 18.4569 24.9826 18.3947 25.0526C18.2708 25.192 18.0881 25.3744 17.8456 25.5563C17.3585 25.9216 16.6209 26.2907 15.6424 26.2907C14.664 26.2907 13.9263 25.9216 13.4393 25.5563C13.1967 25.3744 13.014 25.192 12.8901 25.0526Z" fill="#04BE78"/>
<path d="M17.7861 25.0526C17.7239 24.9826 17.4371 24.6429 17.355 24.4548C17.5136 24.1934 17.7239 23.9269 17.7861 23.857C17.91 23.7175 18.0927 23.5352 18.3353 23.3532C18.8223 22.9879 19.56 22.6188 20.5384 22.6188C21.5168 22.6188 22.2545 22.9879 22.7415 23.3532C22.9841 23.5352 23.1668 23.7175 23.2907 23.857C23.3529 23.9269 23.6047 24.2476 23.7218 24.4548C23.6525 24.5982 23.3529 24.9826 23.2907 25.0526C23.1668 25.192 22.9841 25.3744 22.7415 25.5563C22.2545 25.9216 21.5168 26.2907 20.5384 26.2907C19.56 26.2907 18.8223 25.9216 18.3353 25.5563C18.0927 25.3744 17.91 25.192 17.7861 25.0526Z" fill="#04BE78"/>
<path fill-rule="evenodd" clip-rule="evenodd" d="M18.7025 27.1067V20.9869H17.4785V27.1067H18.7025Z" fill="#04BE78"/>
<path fill-rule="evenodd" clip-rule="evenodd" d="M18.0904 22.2109C21.5829 22.2109 24.4142 19.3796 24.4142 15.8871C24.4142 12.3945 21.5829 9.56329 18.0904 9.56329C14.5979 9.56329 11.7666 12.3945 11.7666 15.8871C11.7666 19.3796 14.5979 22.2109 18.0904 22.2109ZM18.7024 13.0992V12.0112H17.4784V13.0992H15.4385V14.3231H16.2035V17.4511H15.4385V18.675H17.4784V19.7629H18.7024V18.675H19.3653C20.1624 18.675 20.7423 17.9978 20.7423 17.2471V16.7031C20.7423 16.4073 20.6524 16.1231 20.4946 15.8871C20.6524 15.6511 20.7423 15.3668 20.7423 15.0711V14.5271C20.7423 13.7763 20.1624 13.0992 19.3653 13.0992H18.7024ZM17.4274 15.2751V14.3231H19.3653C19.4132 14.3231 19.5183 14.3767 19.5183 14.5271V15.0711C19.5183 15.2216 19.4132 15.2751 19.3653 15.2751H17.4274ZM17.4274 16.4991H19.3653C19.4132 16.4991 19.5183 16.5526 19.5183 16.7031V17.2471C19.5183 17.3975 19.4132 17.4511 19.3653 17.4511H17.4274V16.4991Z" fill="#04BE78"/>
</svg>
