<svg width="36" height="37" viewBox="0 0 36 37" fill="none" xmlns="http://www.w3.org/2000/svg">
<rect x="0.0834961" y="0.383667" width="35.9028" height="35.9028" rx="17.9514" fill="#F9E9E9"/>
<path d="M18.0349 10.1754L18.5587 10.1794L19.0614 10.1933L19.3054 10.2039L19.7778 10.2317L20.229 10.2692C24.0535 10.6405 25.6552 12.1729 26.0763 15.9043L26.1008 16.1409L26.1383 16.5922L26.1718 17.1854L26.1767 17.3078L26.1905 17.8112L26.1946 18.3351L26.1905 18.8589L26.1767 19.3616L26.166 19.6055L26.1383 20.078L26.1008 20.5292C25.7295 24.3537 24.1971 25.9554 20.4657 26.3765L20.229 26.401L19.7778 26.4385L19.1846 26.472L19.0622 26.4768L18.5587 26.4907L18.0349 26.4948L17.511 26.4907L17.0084 26.4768L16.7644 26.4662L16.292 26.4385L15.8407 26.401C12.0163 26.0297 10.4145 24.4973 9.99348 20.7659L9.969 20.5292L9.93146 20.078L9.89801 19.4848L9.89311 19.3624L9.87924 18.8589L9.87598 18.5995V18.0707L9.87924 17.8112L9.89311 17.3086L9.90372 17.0646L9.93146 16.5922L9.969 16.1409C10.3403 12.3165 11.8727 10.7147 15.6041 10.2937L15.8407 10.2692L16.292 10.2317L16.8852 10.1982L17.0076 10.1933L17.511 10.1794C17.6824 10.177 17.857 10.1754 18.0349 10.1754ZM18.8509 14.2552H17.2189L17.0965 14.2593C16.708 14.2885 16.3427 14.4557 16.0667 14.7308C15.7908 15.0059 15.6223 15.3706 15.5919 15.7591L15.587 15.8872V17.5191L15.591 17.6415C15.6057 17.8341 15.6539 18.0168 15.7298 18.1858L15.791 18.3098L15.8056 18.3343L15.791 18.3604C15.6824 18.5562 15.6131 18.7757 15.5927 19.0091L15.587 19.151V20.783L15.591 20.9054C15.6202 21.2939 15.7875 21.6592 16.0626 21.9352C16.3376 22.2111 16.7024 22.3796 17.0908 22.41L17.2189 22.4149H18.8509L18.9733 22.4109C19.3618 22.3817 19.7271 22.2144 20.003 21.9393C20.279 21.6643 20.4474 21.2995 20.4779 20.9111L20.4828 20.783V19.151L20.4787 19.0287C20.4645 18.8405 20.4175 18.6564 20.34 18.4844L20.2788 18.3604L20.2633 18.3343L20.2796 18.3098C20.3899 18.1097 20.4572 17.8887 20.4771 17.6611L20.4828 17.5191V15.8872L20.4787 15.7648C20.4495 15.3762 20.2823 15.0109 20.0072 14.735C19.7321 14.459 19.3674 14.2906 18.979 14.2601L18.8509 14.2552ZM18.8509 19.151V20.783H17.2189V19.151H18.8509ZM18.8509 15.8872V17.5191H17.2189V15.8872H18.8509Z" fill="#DC2626"/>
</svg>
