<svg width="37" height="37" viewBox="0 0 37 37" fill="none" xmlns="http://www.w3.org/2000/svg">
<rect x="0.611328" y="0.383667" width="35.9028" height="35.9028" rx="17.9514" fill="#E4ECF8"/>
<path fill-rule="evenodd" clip-rule="evenodd" d="M15.6993 12.4775C15.7597 12.5696 15.6915 12.7266 15.555 13.0407C15.5025 13.1616 15.4549 13.2851 15.4124 13.4109C15.3619 13.5602 15.3367 13.6348 15.2834 13.6731C15.2301 13.7113 15.1561 13.7113 15.008 13.7113H13.2462C12.8792 13.7113 12.5817 14.0081 12.5817 14.3743C12.5817 14.7404 12.8792 15.0373 13.2462 15.0373H21.2674C21.8329 15.0287 23.0706 15.0323 23.4968 15.116C24.1134 15.1987 24.6579 15.379 25.0939 15.814C25.5299 16.249 25.7106 16.7922 25.7935 17.4074C25.8725 17.9933 25.8724 18.7336 25.8724 19.6313V21.0508C25.8724 21.9486 25.8725 22.6888 25.7935 23.2748C25.7106 23.8899 25.5299 24.4332 25.0939 24.8682C24.6579 25.3031 24.1134 25.4834 23.4968 25.5662C22.9095 25.6449 22.1675 25.6449 21.2676 25.6448H17.185C15.9733 25.6449 14.9966 25.6449 14.2284 25.5419C13.4309 25.4349 12.7594 25.206 12.2261 24.674C11.6928 24.1419 11.4634 23.472 11.3562 22.6763C11.2529 21.9099 11.2529 20.9355 11.2529 19.7266V14.3743C11.2529 13.2759 12.1455 12.3854 13.2465 12.3854L15.1602 12.3854C15.4793 12.3854 15.6388 12.3854 15.6993 12.4775ZM22.3026 19.015C23.0537 19.015 23.6625 19.6238 23.6625 20.3749C23.6625 21.126 23.0537 21.7349 22.3026 21.7349C21.5515 21.7349 20.9426 21.126 20.9426 20.3749C20.9426 19.6238 21.5515 19.015 22.3026 19.015Z" fill="#0062FF"/>
<path d="M23.6324 14.2766C23.7054 14.2867 23.7683 14.2236 23.7536 14.1515C23.3906 12.3677 21.8132 11.0253 19.9223 11.0253C18.1047 11.0253 16.5767 12.2656 16.1386 13.946C16.1063 14.0701 16.2029 14.1873 16.3312 14.1873H21.2608C21.5524 14.1829 22.011 14.1817 22.4544 14.1923C22.86 14.2019 23.3334 14.2223 23.6324 14.2766Z" fill="#0062FF"/>
</svg>
