<svg width="46" height="46" viewBox="0 0 46 46" fill="none" xmlns="http://www.w3.org/2000/svg">
<rect width="46" height="46" rx="23" fill="#104932"/>
<path d="M23.3834 30.6668H18.853C17.6683 30.6668 16.7259 30.0902 15.8797 29.2842C14.1476 27.6339 16.9915 26.3152 18.0762 25.6693C19.6868 24.7103 21.5716 24.3586 23.3834 24.6141C24.0408 24.7068 24.681 24.8795 25.3 25.1321" stroke="#00AB6B" stroke-width="1.15" stroke-linecap="round" stroke-linejoin="round"/>
<path d="M26.45 18.7834C26.45 20.6888 24.9054 22.2334 23 22.2334C21.0947 22.2334 19.55 20.6888 19.55 18.7834C19.55 16.878 21.0947 15.3334 23 15.3334C24.9054 15.3334 26.45 16.878 26.45 18.7834Z" stroke="#00AB6B" stroke-width="1.15"/>
<path d="M27.9834 30.6667V25.3M25.3 27.9834H30.6667" stroke="#99FFD9" stroke-width="1.15" stroke-linecap="round"/>
</svg>
