<svg width="35" height="35" viewBox="0 0 35 35" fill="none" xmlns="http://www.w3.org/2000/svg">
<rect x="0.460205" y="0.62085" width="34" height="34" rx="17" fill="#104932"/>
<path d="M12.3594 16.7693V19.6043C12.3594 21.2081 12.3594 22.01 12.8574 22.5082C13.3554 23.0065 14.1569 23.0065 15.7599 23.0065H19.1605C20.7635 23.0065 21.565 23.0065 22.063 22.5082C22.5611 22.01 22.5611 21.2081 22.5611 19.6043V16.7693" stroke="#00AB6B" stroke-width="0.85014"/>
<path d="M14.6262 21.022H16.8933" stroke="#99FFD9" stroke-width="0.85014" stroke-linecap="round"/>
<path d="M16.3851 15.5917C16.2253 16.1691 15.6441 17.1652 14.5398 17.3096C13.5647 17.4371 12.8251 17.0112 12.6362 16.8332C12.428 16.6888 11.9533 16.2269 11.837 15.9382C11.7208 15.6494 11.8564 15.0239 11.9533 14.7688L12.3405 13.647C12.4351 13.3653 12.6564 12.6989 12.8833 12.4735C13.1101 12.2481 13.5695 12.2382 13.7586 12.2382H17.729C18.751 12.2527 20.9856 12.2291 21.4273 12.2382C21.8691 12.2474 22.1345 12.6178 22.212 12.7766C22.8711 14.3738 23.1274 15.2885 23.1274 15.6783C23.0414 16.0941 22.6854 16.8781 21.4273 17.223C20.1198 17.5814 19.3785 16.8843 19.146 16.6167M15.8475 16.6167C16.0316 16.8428 16.609 17.298 17.4459 17.3096C18.2829 17.3211 19.0056 16.7369 19.2622 16.4434C19.3349 16.3568 19.4918 16.0998 19.6546 15.5917" stroke="#00AB6B" stroke-width="0.85014" stroke-linecap="round" stroke-linejoin="round"/>
</svg>
