<svg width="20" height="21" viewBox="0 0 20 21" fill="none" xmlns="http://www.w3.org/2000/svg">
<path d="M13.1943 5.55029H6.6665" stroke="white" stroke-width="1.22396" stroke-linejoin="round"/>
<path d="M9.11442 8.81421H6.6665" stroke="white" stroke-width="1.22396" stroke-linejoin="round"/>
<path d="M11.9705 8.71223C11.2946 8.71223 10.7466 9.1917 10.7466 9.7832C10.7466 10.3747 11.2946 10.8542 11.9705 10.8542C12.6465 10.8542 13.1945 11.3336 13.1945 11.9251C13.1945 12.5166 12.6465 12.9961 11.9705 12.9961M11.9705 8.71223C12.5035 8.71223 12.9568 9.01023 13.1248 9.42621M11.9705 8.71223V7.59027M11.9705 12.9961C11.4376 12.9961 10.9843 12.6981 10.8163 12.2821M11.9705 12.9961V14.118" stroke="white" stroke-width="1.22396" stroke-linejoin="round"/>
<path d="M16.874 18.0908V2.32122C16.874 2.27611 16.4223 2.28673 16.3772 2.28673H3.05204C3.00698 2.28673 3.00105 2.39602 3.00105 2.44114V18.1702C3.00105 18.2313 2.99205 18.2207 3.04634 18.1928L6.25403 16.5768L9.90032 18.5948C9.92488 18.6085 9.95475 18.6085 9.97939 18.595L13.5936 16.5688L16.7889 18.1923C16.8432 18.2198 16.874 18.1518 16.874 18.0908Z" stroke="white" stroke-width="1.22396"/>
</svg>
