<svg width="20" height="21" viewBox="0 0 20 21" fill="none" xmlns="http://www.w3.org/2000/svg">
<path d="M2.99495 8.434H1.771V2.31421H18.0901V8.434H16.8665" stroke="white" stroke-width="1.22396"/>
<path d="M9.93061 8.84198H7.07471" stroke="white" stroke-width="1.22396" stroke-linejoin="round"/>
<path d="M12.3785 12.1059H7.07471" stroke="white" stroke-width="1.22396" stroke-linejoin="round"/>
<path d="M14.7512 5.57806H5.13153C5.09063 5.57806 5.05601 5.60826 5.05048 5.64877L3.40361 17.7175C3.39541 17.7776 3.45321 17.8253 3.51072 17.8061L5.85424 17.0195L7.42605 18.6092C7.4536 18.637 7.49708 18.6415 7.52968 18.6197L9.92726 17.0195L12.3099 18.6197C12.3423 18.6415 12.3856 18.6373 12.4133 18.6097L14.0072 17.0195L16.3505 17.8061C16.408 17.8254 16.4657 17.7777 16.4577 17.7177L14.8323 5.64891C14.8268 5.60834 14.7922 5.57806 14.7512 5.57806Z" stroke="white" stroke-width="1.22396" stroke-linecap="round"/>
</svg>
