<svg width="24" height="26" viewBox="0 0 24 26" fill="none" xmlns="http://www.w3.org/2000/svg">
<path fill-rule="evenodd" clip-rule="evenodd" d="M8.36298 4.91919C6.49198 4.91919 4.92018 6.32602 4.71357 8.18558L3.85254 15.9348L1.40462 15.9348C0.728649 15.9348 0.180664 16.4828 0.180664 17.1588V18.3827C0.180664 19.0587 0.728651 19.6067 1.40462 19.6067H18.54C19.216 19.6067 19.764 19.0587 19.764 18.3827V17.1588C19.764 16.4828 19.216 15.9348 18.54 15.9348L16.0921 15.9348L15.2311 8.18557C15.0245 6.32602 13.4527 4.91919 11.5817 4.91919H8.36298Z" fill="#00AB6B"/>
<rect x="7.52441" y="20.8307" width="4.89583" height="4.89583" rx="1.83594" fill="#A8D8C6"/>
<path fill-rule="evenodd" clip-rule="evenodd" d="M17.3159 13.8949C20.9211 13.8949 23.8436 10.9723 23.8436 7.36713C23.8436 3.76194 20.9211 0.839355 17.3159 0.839355C13.7107 0.839355 10.7881 3.76194 10.7881 7.36713C10.7881 10.9723 13.7107 13.8949 17.3159 13.8949Z" fill="#F93C65"/>
<path d="M17.2443 10.9373C16.3892 10.9373 15.7266 10.637 15.2566 10.0364C14.7931 9.43588 14.5614 8.5938 14.5614 7.51019C14.5614 6.34172 14.8225 5.43762 15.3447 4.7979C15.8735 4.15817 16.6013 3.83831 17.5283 3.83831C17.8938 3.83831 18.2561 3.90686 18.6152 4.04394C18.9742 4.17449 19.281 4.3638 19.5356 4.61186L19.1243 5.55186C18.8828 5.32991 18.625 5.16672 18.3508 5.06227C18.0766 4.9513 17.7959 4.89581 17.5087 4.89581C16.9408 4.89581 16.5067 5.09491 16.2064 5.49311C15.9061 5.8913 15.756 6.48533 15.756 7.27519V7.55915C15.8931 7.20012 16.115 6.91942 16.4218 6.71706C16.7286 6.5147 17.0811 6.41352 17.4793 6.41352C17.8775 6.41352 18.23 6.50818 18.5368 6.69748C18.8436 6.88679 19.0852 7.1479 19.2614 7.48081C19.4377 7.81373 19.5258 8.19561 19.5258 8.62644C19.5258 9.07033 19.4279 9.46852 19.232 9.82102C19.0427 10.167 18.7751 10.4412 18.4291 10.6435C18.0897 10.8394 17.6947 10.9373 17.2443 10.9373ZM17.1758 9.93852C17.5283 9.93852 17.8122 9.82429 18.0277 9.59581C18.2496 9.36081 18.3606 9.05401 18.3606 8.6754C18.3606 8.29679 18.2496 7.98998 18.0277 7.75498C17.8122 7.51998 17.5283 7.40248 17.1758 7.40248C16.8233 7.40248 16.5361 7.51998 16.3141 7.75498C16.0987 7.98998 15.991 8.29679 15.991 8.6754C15.991 9.05401 16.0987 9.36081 16.3141 9.59581C16.5361 9.82429 16.8233 9.93852 17.1758 9.93852Z" fill="white"/>
</svg>
