<svg width="29" height="29" viewBox="0 0 29 29" fill="none" xmlns="http://www.w3.org/2000/svg">
<path d="M14.6688 0.411377C7.00601 0.411377 0.79541 6.62131 0.79541 14.283C0.79541 18.9417 3.09319 23.0583 6.60948 25.5772V24.9989V5.70591H9.53704H16.8616C18.611 5.70591 20.1797 6.46974 21.2528 7.6883C22.1683 8.72042 22.7224 10.0789 22.7224 11.5657C22.7224 13.0525 22.1683 14.411 21.2528 15.4431C20.2205 16.6151 18.7277 17.3672 17.054 17.4198H9.53704V26.5759V27.1748C11.1234 27.8045 12.8552 28.1544 14.6631 28.1544C22.3259 28.1544 28.5365 21.9445 28.5365 14.283C28.5365 6.62131 22.3257 0.411377 14.6688 0.411377ZM17.3863 23.2798H12.4644V20.3526H17.3863V23.2798Z" fill="#0528A8"/>
<path d="M6.60948 5.70591V24.9989V25.5772L9.53704 27.1748V26.5759V17.4198H17.054C18.7277 17.3672 20.2205 16.6151 21.2528 15.4431C22.1683 14.411 22.7224 13.0525 22.7224 11.5657C22.7224 10.0789 22.1683 8.72042 21.2528 7.6883C20.1797 6.46974 18.611 5.70591 16.8616 5.70591H9.53704H6.60948Z" fill="#F87E29"/>
<path d="M17.3863 23.2798H12.4644V20.3526H17.3863V23.2798Z" fill="#F87E29"/>
<path d="M17.008 14.4924C17.1596 14.4867 17.3054 14.469 17.4453 14.4399C17.7602 14.3757 18.0577 14.265 18.326 14.1076C19.1775 13.6178 19.7608 12.7082 19.7956 11.6586C19.7956 11.6238 19.7956 11.5887 19.7956 11.5596C19.7956 11.5304 19.7956 11.5013 19.7956 11.4662C19.7665 10.4167 19.1833 9.50127 18.326 9.00551C17.982 8.80716 17.5972 8.67897 17.1889 8.63242C17.0841 8.62073 16.9731 8.61499 16.8681 8.61499C16.7573 8.61499 16.6523 8.62073 16.5472 8.63242H9.5376V14.4924H16.7282C16.7747 14.4924 16.8215 14.4982 16.8681 14.4982C16.9149 14.4924 16.9614 14.4924 17.008 14.4924Z" fill="#0528A8"/>
</svg>
