<svg width="19" height="19" viewBox="0 0 19 19" fill="none" xmlns="http://www.w3.org/2000/svg">
<g clip-path="url(#clip0_2607_814)">
<path fill-rule="evenodd" clip-rule="evenodd" d="M5.49702 16.2097L8.79366 14.2115C9.47212 13.8003 10.3229 13.8003 11.0014 14.2114L14.3 16.2101L13.4264 12.4664C13.2472 11.6984 13.507 10.8942 14.1018 10.3762L17.007 7.84622L13.181 7.52132C12.3949 7.45457 11.7102 6.95884 11.4013 6.23295L9.89844 2.70072L8.39555 6.23295C8.0867 6.95884 7.40194 7.45457 6.61591 7.52132L2.78988 7.84622L5.69508 10.3762C6.28984 10.8942 6.54971 11.6984 6.37049 12.4664L5.49702 16.2097ZM9.45605 15.3044C9.72743 15.1399 10.0677 15.1399 10.3391 15.3043L14.5033 17.8276C15.1484 18.2185 15.9459 17.64 15.7745 16.9053L14.6709 12.176C14.5992 11.8688 14.7031 11.5471 14.9411 11.3399L18.6048 8.14936C19.1723 7.65515 18.8672 6.72166 18.1174 6.65798L13.2891 6.24797C12.9747 6.22127 12.7008 6.02298 12.5772 5.73262L10.6824 1.27915C10.3883 0.587942 9.40858 0.587941 9.11449 1.27914L7.21963 5.73262C7.09609 6.02298 6.82219 6.22127 6.50778 6.24797L1.67949 6.65798C0.929649 6.72166 0.624564 7.65515 1.19207 8.14936L4.85582 11.3399C5.09373 11.5471 5.19767 11.8688 5.12599 12.176L4.0225 16.905C3.85107 17.6397 4.64861 18.2182 5.29376 17.8272L9.45605 15.3044Z" fill="#FFC500"/>
</g>
<defs>
<clipPath id="clip0_2607_814">
<rect width="18" height="17.25" fill="white" transform="translate(0.898438 0.760742)"/>
</clipPath>
</defs>
</svg>
