<svg width="19" height="19" viewBox="0 0 19 19" fill="none" xmlns="http://www.w3.org/2000/svg">
<g clip-path="url(#clip0_2749_1011)">
<path d="M10.3391 15.3043C10.0677 15.1399 9.72743 15.1399 9.45605 15.3044L5.29376 17.8272C4.64861 18.2182 3.85107 17.6397 4.0225 16.905L5.12599 12.176C5.19767 11.8688 5.09373 11.5471 4.85582 11.3399L1.19207 8.14936C0.624564 7.65515 0.929649 6.72166 1.67949 6.65798L6.50778 6.24797C6.82219 6.22127 7.0961 6.02298 7.21963 5.73262L9.11449 1.27914C9.40858 0.587941 10.3883 0.587942 10.6824 1.27915L12.5772 5.73262C12.7008 6.02298 12.9747 6.22127 13.2891 6.24797L18.1174 6.65798C18.8672 6.72166 19.1723 7.65515 18.6048 8.14936L14.9411 11.3399C14.7031 11.5471 14.5992 11.8688 14.6709 12.176L15.7745 16.9053C15.9459 17.64 15.1484 18.2185 14.5033 17.8276L10.3391 15.3043Z" fill="#FFC500"/>
</g>
<defs>
<clipPath id="clip0_2749_1011">
<rect width="18" height="17.25" fill="white" transform="translate(0.898438 0.760742)"/>
</clipPath>
</defs>
</svg>
