<svg width="169" height="30" viewBox="0 0 169 30" fill="none" xmlns="http://www.w3.org/2000/svg">
<path d="M1.09613 18.0454L4.62413 18.0934C4.74413 19.7254 6.04013 20.8534 8.10413 20.8534C9.76013 20.8534 10.9841 20.1334 10.9841 18.8134C10.9841 17.3974 9.61613 17.1094 6.80813 16.5574C3.97613 16.0294 1.48013 15.1174 1.48013 11.7094C1.48013 8.73343 3.95213 6.62143 7.74413 6.62143C11.7041 6.62143 14.2241 8.68543 14.2721 11.9014H10.7441C10.5761 10.4854 9.49613 9.50143 7.74413 9.50143C6.20813 9.50143 5.10413 10.1494 5.10413 11.4454C5.10413 12.8134 6.42413 13.1014 9.20813 13.6294C12.0881 14.1574 14.6321 15.0214 14.6081 18.4054C14.5841 21.5494 11.9921 23.7094 8.05613 23.7094C3.78413 23.7094 1.12012 21.4534 1.09613 18.0454ZM17.3921 20.0374V14.0854H15.3521V11.2294H17.3921V7.77343H20.7761V11.2294H23.6081V14.0854H20.7761V19.4854C20.7761 20.3494 21.1121 20.7094 22.0001 20.7094H23.6801V23.5654H20.9201C18.5681 23.5654 17.3921 22.3894 17.3921 20.0374ZM31.0828 23.7094C27.1468 23.7094 24.5788 21.1894 24.5788 17.3974C24.5788 13.6054 27.1468 11.0854 31.0828 11.0854C35.0188 11.0854 37.5868 13.6054 37.5868 17.3974C37.5868 21.2134 35.0188 23.7094 31.0828 23.7094ZM31.0828 20.9494C32.9788 20.9494 34.1548 19.4854 34.1548 17.3974C34.1548 15.3094 32.9788 13.8454 31.0828 13.8454C29.1868 13.8454 28.0348 15.3094 28.0348 17.3974C28.0348 19.4854 29.1868 20.9494 31.0828 20.9494ZM45.2574 23.7094C41.3454 23.7094 38.9694 21.2854 38.9694 17.3974C38.9694 13.5814 41.4654 11.0854 45.3774 11.0854C48.7374 11.0854 50.8254 12.9094 51.3054 15.8374H47.7774C47.4894 14.6134 46.6494 13.8454 45.3294 13.8454C43.5534 13.8454 42.4254 15.3094 42.4254 17.3974C42.4254 19.5094 43.5534 20.9494 45.3294 20.9494C46.6494 20.9494 47.5374 20.1574 47.7774 18.9094H51.3294C50.8494 21.8614 48.6174 23.7094 45.2574 23.7094ZM53.1135 23.5654V6.76543H56.4975V16.4614L61.3215 11.2294H65.1375L60.6975 16.0774L65.3775 23.5654H61.4655L58.3455 18.5734L56.4975 20.5654V23.5654H53.1135ZM66.7134 23.5654V6.76543H73.0974C76.9854 6.76543 79.2414 8.39743 79.2414 11.2054C79.2414 13.3174 77.9934 14.5174 76.0734 14.9254C78.3054 15.2134 79.8414 16.3894 79.8414 18.7894C79.8414 21.7174 77.5374 23.5654 73.4094 23.5654H66.7134ZM73.1934 9.59743H70.3134V13.6774H73.1934C74.7294 13.6774 75.6414 12.8854 75.6414 11.6374C75.6414 10.3894 74.7534 9.59743 73.1934 9.59743ZM73.4334 16.4614H70.3134V20.7094H73.4334C75.1614 20.7094 76.1454 19.9174 76.1454 18.6214C76.1454 17.2534 75.1374 16.4614 73.4334 16.4614ZM87.7547 23.7094C83.8187 23.7094 81.2507 21.1894 81.2507 17.3974C81.2507 13.6054 83.8187 11.0854 87.7547 11.0854C91.6907 11.0854 94.2587 13.6054 94.2587 17.3974C94.2587 21.2134 91.6907 23.7094 87.7547 23.7094ZM87.7547 20.9494C89.6507 20.9494 90.8267 19.4854 90.8267 17.3974C90.8267 15.3094 89.6507 13.8454 87.7547 13.8454C85.8587 13.8454 84.7067 15.3094 84.7067 17.3974C84.7067 19.4854 85.8587 20.9494 87.7547 20.9494ZM102.145 23.7094C98.2093 23.7094 95.6413 21.1894 95.6413 17.3974C95.6413 13.6054 98.2093 11.0854 102.145 11.0854C106.081 11.0854 108.649 13.6054 108.649 17.3974C108.649 21.2134 106.081 23.7094 102.145 23.7094ZM102.145 20.9494C104.041 20.9494 105.217 19.4854 105.217 17.3974C105.217 15.3094 104.041 13.8454 102.145 13.8454C100.249 13.8454 99.0973 15.3094 99.0973 17.3974C99.0973 19.4854 100.249 20.9494 102.145 20.9494ZM110.512 23.5654V6.76543H113.896V16.4614L118.72 11.2294H122.536L118.096 16.0774L122.776 23.5654H118.864L115.744 18.5734L113.896 20.5654V23.5654H110.512Z" fill="white"/>
<path fill-rule="evenodd" clip-rule="evenodd" d="M143.582 1.66479L143.671 1.68191C146.482 2.22446 148.686 3.11434 150.275 4.02349C150.589 4.20272 150.746 4.29234 150.841 4.45792C150.937 4.6235 150.937 4.81616 150.937 5.20146V28.7076C150.937 28.8326 150.809 28.9155 150.697 28.8608C150.273 28.6542 149.719 28.3512 149.027 27.9724L149.001 27.9579C147.646 27.217 145.742 26.4621 143.273 25.9854L143.214 25.9739C141.822 25.7052 140.696 25.488 139.841 25.2303C138.981 24.971 138.197 24.618 137.662 23.9464C137.147 23.3008 136.95 22.5245 136.859 21.6787C136.77 20.8587 136.77 19.822 136.771 18.5581L136.771 8.05647C136.77 6.68853 136.77 5.53797 136.911 4.62374C137.062 3.64184 137.394 2.78279 138.163 2.11488C138.911 1.46524 139.733 1.24693 140.654 1.25305C141.479 1.25854 142.459 1.44792 143.582 1.66479ZM153.158 4.45792C153.254 4.29234 153.411 4.20272 153.724 4.02349C155.313 3.11434 157.518 2.22446 160.329 1.68191L160.417 1.66478C161.54 1.44792 162.521 1.25854 163.346 1.25305C164.266 1.24693 165.089 1.46524 165.837 2.11488C166.605 2.78279 166.938 3.64184 167.089 4.62374C167.229 5.53799 167.229 6.68858 167.229 8.05654V18.5581C167.229 19.822 167.229 20.8587 167.141 21.6787C167.05 22.5245 166.852 23.3008 166.337 23.9464C165.802 24.618 165.019 24.971 164.158 25.2303C163.303 25.488 162.178 25.7052 160.785 25.974L160.726 25.9854C158.257 26.4621 156.353 27.217 154.999 27.9579L154.972 27.9725C154.28 28.3514 153.726 28.6544 153.302 28.8608C153.19 28.9155 153.062 28.8326 153.062 28.7076V5.20146C153.062 4.81616 153.062 4.6235 153.158 4.45792Z" fill="white"/>
</svg>
