<svg width="20" height="21" viewBox="0 0 20 21" fill="none" xmlns="http://www.w3.org/2000/svg">
<path d="M2.58594 9.28174V18.2551H17.2734V9.28174" stroke="white" stroke-width="1.22396" stroke-linejoin="round"/>
<path d="M5.03369 15.3991H9.11354" stroke="white" stroke-width="1.22396"/>
<path d="M7.5939 9.09003C6.61533 10.1577 5.24163 10.157 4.44677 10.0144C3.21738 9.79373 2.28715 8.81853 1.77145 8.07668C1.77002 8.0746 1.76965 8.07203 1.7704 8.06963L3.44266 2.74915H16.4205L18.0903 8.05252C18.091 8.05487 18.0908 8.05733 18.0894 8.05938C17.3731 9.13214 15.3698 11.1711 12.5544 9.40606L12.1563 9.22483M7.5939 9.09003C8.01708 8.62831 8.3664 7.96685 8.56297 7.03071M7.5939 9.09003C8.07602 9.6342 9.41607 10.527 11.0768 9.87484C11.5277 9.69769 11.8791 9.47574 12.1563 9.22483M12.1563 9.22483C12.8545 8.59286 13.0828 7.77707 13.2489 7.03071" stroke="white" stroke-width="1.22396"/>
</svg>
