<svg width="19" height="19" viewBox="0 0 19 19" fill="none" xmlns="http://www.w3.org/2000/svg">
<path d="M9.4999 0.729492C4.69148 0.729492 0.757324 4.66365 0.757324 9.47206C0.757324 14.2805 4.69148 18.2146 9.4999 18.2146C14.3083 18.2146 18.2425 14.2805 18.2425 9.47206C18.2425 4.66365 14.3083 0.729492 9.4999 0.729492ZM12.7346 10.084L10.1119 12.7068C9.76217 13.0565 9.23762 13.0565 8.88792 12.7068C8.53821 12.3571 8.53821 11.8326 8.88792 11.4829L10.0245 10.3463H6.87712C6.35257 10.3463 6.00287 9.99662 6.00287 9.47206C6.00287 8.94751 6.35257 8.59781 6.87712 8.59781H10.0245L8.88792 7.46127C8.53821 7.11157 8.53821 6.58702 8.88792 6.23731C9.23762 5.88761 9.76217 5.88761 10.1119 6.23731L12.7346 8.86008C13.0844 9.20979 13.0844 9.73434 12.7346 10.084Z" fill="white"/>
</svg>
