<svg width="18" height="18" viewBox="0 0 18 18" fill="none" xmlns="http://www.w3.org/2000/svg">
<path d="M6.15966 0.774828C1.59988 2.301 -0.882175 7.28042 0.643995 11.8402C2.17017 16.4 7.14958 18.882 11.7094 17.3559C16.2692 15.8297 18.7512 10.8503 17.225 6.29049C15.6989 1.73071 10.7194 -0.751342 6.15966 0.774828ZM12.1962 8.61899L10.5415 11.9386C10.3209 12.3812 9.82349 12.5477 9.38088 12.3271C8.93826 12.1065 8.77177 11.609 8.9924 11.1664L9.70943 9.72791L6.72485 10.7269C6.22741 10.8933 5.7848 10.6727 5.61831 10.1753C5.45182 9.67786 5.67244 9.23525 6.16988 9.06875L9.15446 8.06981L7.71596 7.35277C7.27335 7.13214 7.10686 6.63471 7.32748 6.1921C7.54811 5.74948 8.04554 5.58299 8.48816 5.80362L11.8078 7.45832C12.2504 7.67894 12.4169 8.17638 12.1962 8.61899Z" fill="white"/>
</svg>
